<svg width="136" height="136" viewBox="0 0 136 136" fill="none" xmlns="http://www.w3.org/2000/svg">
<g filter="url(#filter0_d_301_4)">
<g clip-path="url(#clip0_301_4)">
<g filter="url(#filter1_i_301_4)">
<rect x="4" width="128" height="128" rx="19" fill="#E9E3E6"/>
</g>
<rect x="5.5" y="1.5" width="125" height="125" rx="17.5" stroke="#736F72" stroke-width="3"/>
<g filter="url(#filter2_d_301_4)">
<path d="M57.5398 55.8182C57.3428 55.0152 57.0322 54.3106 56.608 53.7045C56.1837 53.0833 55.6534 52.5606 55.017 52.1364C54.3958 51.697 53.6686 51.3712 52.8352 51.1591C52.017 50.9318 51.1155 50.8182 50.1307 50.8182C48.0095 50.8182 46.1989 51.3258 44.6989 52.3409C43.214 53.3561 42.0777 54.8182 41.2898 56.7273C40.517 58.6364 40.1307 60.9394 40.1307 63.6364C40.1307 66.3636 40.5019 68.697 41.2443 70.6364C41.9867 72.5758 43.0928 74.0606 44.5625 75.0909C46.0322 76.1212 47.858 76.6364 50.0398 76.6364C51.964 76.6364 53.5625 76.3561 54.8352 75.7955C56.1231 75.2348 57.0852 74.4394 57.7216 73.4091C58.358 72.3788 58.6761 71.1667 58.6761 69.7727L60.858 70H50.2216V61H70.858V67.4545C70.858 71.697 69.9564 75.3258 68.1534 78.3409C66.3655 81.3409 63.8958 83.6439 60.7443 85.25C57.608 86.8409 54.0095 87.6364 49.9489 87.6364C45.4186 87.6364 41.4413 86.6742 38.017 84.75C34.5928 82.8258 31.9186 80.0833 29.9943 76.5227C28.0852 72.9621 27.1307 68.7273 27.1307 63.8182C27.1307 59.9697 27.714 56.5606 28.8807 53.5909C30.0625 50.6212 31.6989 48.1136 33.7898 46.0682C35.8807 44.0076 38.2973 42.4545 41.0398 41.4091C43.7822 40.3485 46.7216 39.8182 49.858 39.8182C52.6155 39.8182 55.1761 40.2121 57.5398 41C59.9186 41.7727 62.017 42.8788 63.8352 44.3182C65.6686 45.7424 67.1458 47.4318 68.267 49.3864C69.3883 51.3409 70.0701 53.4848 70.3125 55.8182H57.5398ZM77.2955 87V80.0909L92.5682 61.8182V61.6364H77.8409V52.0909H107.386V59.7273L93.4773 77.2727V77.4545H107.932V87H77.2955Z" fill="#736F72"/>
</g>
</g>
<rect x="4.5" y="0.5" width="127" height="127" stroke="black" stroke-linejoin="round" shape-rendering="crispEdges"/>
</g>
<defs>
<filter id="filter0_d_301_4" x="0" y="0" width="136" height="136" filterUnits="userSpaceOnUse" color-interpolation-filters="sRGB">
<feFlood flood-opacity="0" result="BackgroundImageFix"/>
<feColorMatrix in="SourceAlpha" type="matrix" values="0 0 0 0 0 0 0 0 0 0 0 0 0 0 0 0 0 0 127 0" result="hardAlpha"/>
<feOffset dy="4"/>
<feGaussianBlur stdDeviation="2"/>
<feComposite in2="hardAlpha" operator="out"/>
<feColorMatrix type="matrix" values="0 0 0 0 0 0 0 0 0 0 0 0 0 0 0 0 0 0 0.25 0"/>
<feBlend mode="normal" in2="BackgroundImageFix" result="effect1_dropShadow_301_4"/>
<feBlend mode="normal" in="SourceGraphic" in2="effect1_dropShadow_301_4" result="shape"/>
</filter>
<filter id="filter1_i_301_4" x="4" y="0" width="128" height="132" filterUnits="userSpaceOnUse" color-interpolation-filters="sRGB">
<feFlood flood-opacity="0" result="BackgroundImageFix"/>
<feBlend mode="normal" in="SourceGraphic" in2="BackgroundImageFix" result="shape"/>
<feColorMatrix in="SourceAlpha" type="matrix" values="0 0 0 0 0 0 0 0 0 0 0 0 0 0 0 0 0 0 127 0" result="hardAlpha"/>
<feOffset dy="4"/>
<feGaussianBlur stdDeviation="2"/>
<feComposite in2="hardAlpha" operator="arithmetic" k2="-1" k3="1"/>
<feColorMatrix type="matrix" values="0 0 0 0 0 0 0 0 0 0 0 0 0 0 0 0 0 0 0.25 0"/>
<feBlend mode="normal" in2="shape" result="effect1_innerShadow_301_4"/>
</filter>
<filter id="filter2_d_301_4" x="23.1306" y="39.8182" width="88.8013" height="55.8182" filterUnits="userSpaceOnUse" color-interpolation-filters="sRGB">
<feFlood flood-opacity="0" result="BackgroundImageFix"/>
<feColorMatrix in="SourceAlpha" type="matrix" values="0 0 0 0 0 0 0 0 0 0 0 0 0 0 0 0 0 0 127 0" result="hardAlpha"/>
<feOffset dy="4"/>
<feGaussianBlur stdDeviation="2"/>
<feComposite in2="hardAlpha" operator="out"/>
<feColorMatrix type="matrix" values="0 0 0 0 0 0 0 0 0 0 0 0 0 0 0 0 0 0 0.25 0"/>
<feBlend mode="normal" in2="BackgroundImageFix" result="effect1_dropShadow_301_4"/>
<feBlend mode="normal" in="SourceGraphic" in2="effect1_dropShadow_301_4" result="shape"/>
</filter>
<clipPath id="clip0_301_4">
<rect x="4" width="128" height="128" fill="white"/>
</clipPath>
</defs>
</svg>
